  0
SECTION
  2
HEADER
  9
$ACADVER
  1
AC1009
  9
$INSUNITS
 70
     1
 9
$MEASUREMENT
 70
    0
  0
ENDSEC
  0
SECTION
  2
TABLES
  0
TABLE
  2
LAYER
 70
     8
  0
LAYER
  2
0
 62
     7
 70
0
  6
CONTINUOUS
  0
LAYER
  2
1
 62
     1
 70
0
  6
CONTINUOUS
  0
LAYER
  2
2
 62
     2
 70
0
  6
CONTINUOUS
  0
LAYER
  2
3
 62
     3
 70
0
  6
CONTINUOUS
  0
LAYER
  2
4
 62
     4
 70
0
  6
CONTINUOUS
  0
LAYER
  2
5
 62
     5
 70
0
  6
CONTINUOUS
  0
LAYER
  2
6
 62
     6
 70
0
  6
CONTINUOUS
  0
LAYER
  2
7
 62
     7
 70
0
  6
CONTINUOUS
  0
ENDTAB
  0
TABLE
  2
STYLE
 70
     1
  0
STYLE
 70
     0
  2
STANDARD
  3
TXT
 40
0.00
 41
1.00
 42
1.00
 50
0.00
 71
     0
  0
ENDTAB
  0
ENDSEC
  0
SECTION
  2
BLOCKS
  0
BLOCK
  8
0
  2
EPAD
 70
0
 10
0.0
 20
0.0
  0
POLYLINE
  8
0
 66
1
 70
1
 40
0.5
 41
0.5
  0
VERTEX
  8
0
 10
-0.25
 20
0.0
 42
1.0
  0
VERTEX
  8
0
 10
0.25
 20
0.0
 42
1.0
  0
SEQEND
  8
0
  0
ENDBLK
  8
0
  0
BLOCK
  8
0
  2
RPAD
 70
0
 10
0.0
 20
0.0
  0
TRACE
  8
0
 10
-0.5
 20
-0.5
 11
-0.5
 21
0.5
 12
0.5
 22
-0.5
 13
0.5
 23
0.5
  0
ENDBLK
  8
0
  0
ENDSEC
0
SECTION
2
ENTITIES
0
POLYLINE
8
1
66
1
40
0.016000
41
0.016000
0
VERTEX
8
1
10
-1.300000
20
1.000000
0
VERTEX
8
1
10
-1.900000
20
1.000000
0
VERTEX
8
1
10
-1.900000
20
-0.100000
0
SEQEND
8
1
0
POLYLINE
8
1
66
1
40
0.016000
41
0.016000
0
VERTEX
8
1
10
0.800000
20
1.500000
0
VERTEX
8
1
10
0.800000
20
1.600000
0
VERTEX
8
1
10
1.100000
20
1.600000
0
SEQEND
8
1
0
POLYLINE
8
1
66
1
40
0.016000
41
0.016000
0
VERTEX
8
1
10
-1.300000
20
-0.500000
0
VERTEX
8
1
10
-3.000000
20
-0.500000
0
VERTEX
8
1
10
-3.000000
20
-1.400000
0
SEQEND
8
1
0
POLYLINE
8
1
66
1
40
0.016000
41
0.016000
0
VERTEX
8
1
10
-1.300000
20
-0.600000
0
VERTEX
8
1
10
-2.600000
20
-0.600000
0
VERTEX
8
1
10
-2.600000
20
-1.400000
0
SEQEND
8
1
0
POLYLINE
8
1
66
1
40
0.016000
41
0.016000
0
VERTEX
8
1
10
-1.300000
20
-0.700000
0
VERTEX
8
1
10
-2.200000
20
-0.700000
0
VERTEX
8
1
10
-2.200000
20
-1.400000
0
SEQEND
8
1
0
POLYLINE
8
1
66
1
40
0.016000
41
0.016000
0
VERTEX
8
1
10
-1.300000
20
-0.100000
0
VERTEX
8
1
10
-1.600000
20
-0.100000
0
VERTEX
8
1
10
-1.600000
20
-1.000000
0
VERTEX
8
1
10
-3.700000
20
-1.000000
0
VERTEX
8
1
10
-3.700000
20
-1.900000
0
VERTEX
8
1
10
-3.500000
20
-1.900000
0
SEQEND
8
1
0
POLYLINE
8
1
66
1
40
0.016000
41
0.016000
0
VERTEX
8
1
10
-1.300000
20
-0.200000
0
VERTEX
8
1
10
-1.500000
20
-0.200000
0
VERTEX
8
1
10
-1.500000
20
-0.900000
0
VERTEX
8
1
10
-3.600000
20
-0.900000
0
VERTEX
8
1
10
-3.600000
20
-2.300000
0
VERTEX
8
1
10
-3.500000
20
-2.300000
0
SEQEND
8
1
0
POLYLINE
8
1
66
1
40
0.016000
41
0.016000
0
VERTEX
8
1
10
-1.300000
20
-0.300000
0
VERTEX
8
1
10
-1.400000
20
-0.300000
0
VERTEX
8
1
10
-1.400000
20
-0.800000
0
VERTEX
8
1
10
-3.500000
20
-0.800000
0
VERTEX
8
1
10
-3.500000
20
-2.700000
0
SEQEND
8
1
0
POLYLINE
8
1
66
1
40
0.016000
41
0.016000
0
VERTEX
8
1
10
-1.300000
20
-0.400000
0
VERTEX
8
1
10
-4.700000
20
-0.400000
0
VERTEX
8
1
10
-4.700000
20
-3.100000
0
VERTEX
8
1
10
-3.500000
20
-3.100000
0
SEQEND
8
1
0
POLYLINE
8
1
66
1
40
0.016000
41
0.016000
0
VERTEX
8
1
10
0.500000
20
-0.100000
0
VERTEX
8
1
10
1.100000
20
-0.100000
0
VERTEX
8
1
10
1.100000
20
-2.000000
0
VERTEX
8
1
10
1.700000
20
-2.000000
0
SEQEND
8
1
0
POLYLINE
8
1
66
1
40
0.016000
41
0.016000
0
VERTEX
8
1
10
0.500000
20
-0.200000
0
VERTEX
8
1
10
1.000000
20
-0.200000
0
VERTEX
8
1
10
1.000000
20
-2.100000
0
VERTEX
8
1
10
1.700000
20
-2.100000
0
SEQEND
8
1
0
POLYLINE
8
1
66
1
40
0.016000
41
0.016000
0
VERTEX
8
1
10
3.200000
20
-2.000000
0
VERTEX
8
1
10
3.400000
20
-2.000000
0
VERTEX
8
1
10
3.400000
20
-1.200000
0
VERTEX
8
1
10
4.000000
20
-1.200000
0
VERTEX
8
1
10
4.000000
20
-1.500000
0
SEQEND
8
1
0
POLYLINE
8
1
66
1
40
0.016000
41
0.016000
0
VERTEX
8
1
10
3.200000
20
-2.100000
0
VERTEX
8
1
10
3.400000
20
-2.100000
0
VERTEX
8
1
10
3.400000
20
-2.300000
0
VERTEX
8
1
10
4.000000
20
-2.300000
0
VERTEX
8
1
10
4.000000
20
-2.100000
0
SEQEND
8
1
0
POLYLINE
8
1
66
1
40
0.016000
41
0.016000
0
VERTEX
8
1
10
2.400000
20
-3.000000
0
VERTEX
8
1
10
2.400000
20
-3.000000
0
SEQEND
8
1
0
POLYLINE
8
1
66
1
40
0.016000
41
0.016000
0
VERTEX
8
1
10
-1.300000
20
1.400000
0
VERTEX
8
1
10
-1.300000
20
0.700000
0
VERTEX
8
1
10
-2.700000
20
0.700000
0
SEQEND
8
1
0
POLYLINE
8
1
66
1
40
0.016000
41
0.016000
0
VERTEX
8
1
10
-2.700000
20
0.900000
0
VERTEX
8
1
10
-2.700000
20
0.700000
0
SEQEND
8
1
0
POLYLINE
8
1
66
1
40
0.016000
41
0.016000
0
VERTEX
8
1
10
-3.200000
20
0.700000
0
VERTEX
8
1
10
-2.700000
20
0.700000
0
SEQEND
8
1
0
POLYLINE
8
1
66
1
40
0.016000
41
0.016000
0
VERTEX
8
1
10
-1.300000
20
1.700000
0
VERTEX
8
1
10
-1.300000
20
1.500000
0
VERTEX
8
1
10
-2.700000
20
1.500000
0
SEQEND
8
1
0
POLYLINE
8
1
66
1
40
0.016000
41
0.016000
0
VERTEX
8
1
10
-2.700000
20
1.300000
0
VERTEX
8
1
10
-2.700000
20
1.500000
0
SEQEND
8
1
0
POLYLINE
8
1
66
1
40
0.016000
41
0.016000
0
VERTEX
8
1
10
-3.200000
20
1.500000
0
VERTEX
8
1
10
-2.700000
20
1.500000
0
SEQEND
8
1
0
POLYLINE
8
1
66
1
40
0.016000
41
0.016000
0
VERTEX
8
1
10
-3.600000
20
1.500000
0
VERTEX
8
1
10
-4.200000
20
1.500000
0
VERTEX
8
1
10
-4.200000
20
0.700000
0
SEQEND
8
1
0
POLYLINE
8
1
66
1
40
0.016000
41
0.016000
0
VERTEX
8
1
10
-3.600000
20
0.700000
0
VERTEX
8
1
10
-4.200000
20
0.700000
0
SEQEND
8
1
0
POLYLINE
8
1
66
1
40
0.016000
41
0.016000
0
VERTEX
8
1
10
-4.400000
20
0.600000
0
VERTEX
8
1
10
-4.400000
20
0.700000
0
VERTEX
8
1
10
-4.200000
20
0.700000
0
SEQEND
8
1
0
POLYLINE
8
1
66
1
40
0.016000
41
0.016000
0
VERTEX
8
1
10
2.300000
20
-1.700000
0
VERTEX
8
1
10
2.300000
20
-1.300000
0
VERTEX
8
1
10
2.600000
20
-1.300000
0
SEQEND
8
1
0
POLYLINE
8
1
66
1
40
0.016000
41
0.016000
0
VERTEX
8
1
10
2.600000
20
-1.700000
0
VERTEX
8
1
10
2.600000
20
-1.300000
0
SEQEND
8
1
0
POLYLINE
8
1
66
1
40
0.016000
41
0.016000
0
VERTEX
8
1
10
2.700000
20
-1.100000
0
VERTEX
8
1
10
2.700000
20
-1.300000
0
VERTEX
8
1
10
2.600000
20
-1.300000
0
SEQEND
8
1
0
POLYLINE
8
1
66
1
40
0.016000
41
0.016000
0
VERTEX
8
1
10
0.500000
20
0.100000
0
VERTEX
8
1
10
2.900000
20
0.100000
0
VERTEX
8
1
10
2.900000
20
2.100000
0
SEQEND
8
1
0
POLYLINE
8
1
66
1
40
0.016000
41
0.016000
0
VERTEX
8
1
10
0.500000
20
0.200000
0
VERTEX
8
1
10
2.800000
20
0.200000
0
VERTEX
8
1
10
2.800000
20
2.100000
0
SEQEND
8
1
0
POLYLINE
8
1
66
1
40
0.016000
41
0.016000
0
VERTEX
8
1
10
0.500000
20
0.300000
0
VERTEX
8
1
10
2.700000
20
0.300000
0
VERTEX
8
1
10
2.700000
20
2.100000
0
SEQEND
8
1
0
POLYLINE
8
1
66
1
40
0.016000
41
0.016000
0
VERTEX
8
1
10
0.500000
20
0.400000
0
VERTEX
8
1
10
2.600000
20
0.400000
0
VERTEX
8
1
10
2.600000
20
2.100000
0
SEQEND
8
1
0
POLYLINE
8
1
66
1
40
0.016000
41
0.016000
0
VERTEX
8
1
10
0.500000
20
0.500000
0
VERTEX
8
1
10
2.500000
20
0.500000
0
VERTEX
8
1
10
2.500000
20
2.100000
0
SEQEND
8
1
0
POLYLINE
8
1
66
1
40
0.016000
41
0.016000
0
VERTEX
8
1
10
0.500000
20
0.600000
0
VERTEX
8
1
10
2.400000
20
0.600000
0
VERTEX
8
1
10
2.400000
20
2.100000
0
SEQEND
8
1
0
POLYLINE
8
1
66
1
40
0.016000
41
0.016000
0
VERTEX
8
1
10
0.500000
20
0.700000
0
VERTEX
8
1
10
2.300000
20
0.700000
0
VERTEX
8
1
10
2.300000
20
2.100000
0
SEQEND
8
1
0
POLYLINE
8
1
66
1
40
0.016000
41
0.016000
0
VERTEX
8
1
10
0.500000
20
0.800000
0
VERTEX
8
1
10
2.200000
20
0.800000
0
VERTEX
8
1
10
2.200000
20
2.100000
0
SEQEND
8
1
0
POLYLINE
8
1
66
1
40
0.016000
41
0.016000
0
VERTEX
8
1
10
0.500000
20
-0.700000
0
VERTEX
8
1
10
0.500000
20
0.000000
0
VERTEX
8
1
10
2.000000
20
0.000000
0
VERTEX
8
1
10
2.000000
20
2.100000
0
SEQEND
8
1
0
POLYLINE
8
1
66
1
40
0.016000
41
0.016000
0
VERTEX
8
1
10
0.500000
20
-0.600000
0
VERTEX
8
1
10
1.900000
20
-0.600000
0
VERTEX
8
1
10
1.900000
20
2.100000
0
SEQEND
8
1
0
POLYLINE
8
1
66
1
40
0.016000
41
0.016000
0
VERTEX
8
1
10
0.500000
20
-0.500000
0
VERTEX
8
1
10
1.800000
20
-0.500000
0
VERTEX
8
1
10
1.800000
20
2.100000
0
SEQEND
8
1
0
POLYLINE
8
1
66
1
40
0.016000
41
0.016000
0
VERTEX
8
1
10
1.100000
20
1.600000
0
VERTEX
8
1
10
1.100000
20
2.100000
0
VERTEX
8
1
10
1.400000
20
2.100000
0
SEQEND
8
1
0
POLYLINE
8
1
66
1
40
0.016000
41
0.016000
0
VERTEX
8
1
10
0.600000
20
1.700000
0
VERTEX
8
1
10
0.600000
20
1.200000
0
VERTEX
8
1
10
1.500000
20
1.200000
0
VERTEX
8
1
10
1.500000
20
2.100000
0
SEQEND
8
1
0
POLYLINE
8
1
66
1
40
0.016000
41
0.016000
0
VERTEX
8
1
10
1.100000
20
1.600000
0
VERTEX
8
1
10
1.600000
20
1.600000
0
VERTEX
8
1
10
1.600000
20
2.100000
0
SEQEND
8
1
0
POLYLINE
8
1
66
1
40
0.016000
41
0.016000
0
VERTEX
8
1
10
-1.000000
20
-3.300000
0
VERTEX
8
1
10
-1.000000
20
-2.800000
0
VERTEX
8
1
10
-0.100000
20
-2.800000
0
SEQEND
8
1
0
POLYLINE
8
1
66
1
40
0.016000
41
0.016000
0
VERTEX
8
1
10
-1.300000
20
-0.800000
0
VERTEX
8
1
10
-1.300000
20
-2.600000
0
VERTEX
8
1
10
-0.100000
20
-2.600000
0
SEQEND
8
1
0
POLYLINE
8
2
66
1
40
0.016000
41
0.016000
0
VERTEX
8
2
10
-1.100000
20
-0.900000
0
VERTEX
8
2
10
0.300000
20
-0.900000
0
VERTEX
8
2
10
0.300000
20
1.800000
0
VERTEX
8
2
10
-1.100000
20
1.800000
0
VERTEX
8
2
10
-1.100000
20
-0.900000
0
SEQEND
8
2
0
POLYLINE
8
2
66
1
40
0.016000
41
0.016000
0
VERTEX
8
2
10
-1.300000
20
1.400000
0
VERTEX
8
2
10
-1.100000
20
1.400000
0
SEQEND
8
2
0
TEXT
8
0
10
-1.050000
20
1.360000
40
0.080000
41
1.000000
1
XTAL2
0
TEXT
8
0
10
-1.360000
20
1.410000
40
0.080000
41
1.000000
1
18
0
POLYLINE
8
2
66
1
40
0.016000
41
0.016000
0
VERTEX
8
2
10
-1.100000
20
1.730000
0
VERTEX
8
2
10
-1.070000
20
1.700000
0
VERTEX
8
2
10
-1.100000
20
1.670000
0
VERTEX
8
2
10
-1.100000
20
1.730000
0
SEQEND
8
2
0
POLYLINE
8
2
66
1
40
0.016000
41
0.016000
0
VERTEX
8
2
10
-1.300000
20
1.700000
0
VERTEX
8
2
10
-1.100000
20
1.700000
0
SEQEND
8
2
0
TEXT
8
0
10
-1.050000
20
1.660000
40
0.080000
41
1.000000
1
XTAL1
0
TEXT
8
0
10
-1.360000
20
1.710000
40
0.080000
41
1.000000
1
19
0
POLYLINE
8
2
66
1
40
0.016000
41
0.016000
0
VERTEX
8
2
10
-1.300000
20
0.400000
0
VERTEX
8
2
10
-1.100000
20
0.400000
0
SEQEND
8
2
0
TEXT
8
0
10
-1.050000
20
0.360000
40
0.080000
41
1.000000
1
ALE
0
TEXT
8
0
10
-1.360000
20
0.410000
40
0.080000
41
1.000000
1
30
0
POLYLINE
8
2
66
1
40
0.016000
41
0.016000
0
VERTEX
8
2
10
-1.300000
20
0.300000
0
VERTEX
8
2
10
-1.100000
20
0.300000
0
SEQEND
8
2
0
TEXT
8
0
10
-1.050000
20
0.260000
40
0.080000
41
1.000000
1
EA
0
TEXT
8
0
10
-1.360000
20
0.310000
40
0.080000
41
1.000000
1
31
0
POLYLINE
8
2
66
1
40
0.016000
41
0.016000
0
VERTEX
8
2
10
-1.300000
20
0.500000
0
VERTEX
8
2
10
-1.100000
20
0.500000
0
SEQEND
8
2
0
TEXT
8
0
10
-1.050000
20
0.460000
40
0.080000
41
1.000000
1
PSEN
0
TEXT
8
0
10
-1.360000
20
0.510000
40
0.080000
41
1.000000
1
29
0
POLYLINE
8
2
66
1
40
0.016000
41
0.016000
0
VERTEX
8
2
10
-1.300000
20
1.000000
0
VERTEX
8
2
10
-1.100000
20
1.000000
0
SEQEND
8
2
0
TEXT
8
0
10
-1.050000
20
0.960000
40
0.080000
41
1.000000
1
RST
0
TEXT
8
0
10
-1.280000
20
1.010000
40
0.080000
41
1.000000
1
9
0
POLYLINE
8
2
66
1
40
0.016000
41
0.016000
0
VERTEX
8
2
10
0.500000
20
1.700000
0
VERTEX
8
2
10
0.300000
20
1.700000
0
SEQEND
8
2
0
TEXT
8
0
10
-0.390000
20
1.660000
40
0.080000
41
1.000000
1
P0.0/AD0
0
TEXT
8
0
10
0.400000
20
1.710000
40
0.080000
41
1.000000
1
39
0
POLYLINE
8
2
66
1
40
0.016000
41
0.016000
0
VERTEX
8
2
10
0.500000
20
1.600000
0
VERTEX
8
2
10
0.300000
20
1.600000
0
SEQEND
8
2
0
TEXT
8
0
10
-0.390000
20
1.560000
40
0.080000
41
1.000000
1
P0.1/AD1
0
TEXT
8
0
10
0.400000
20
1.610000
40
0.080000
41
1.000000
1
38
0
POLYLINE
8
2
66
1
40
0.016000
41
0.016000
0
VERTEX
8
2
10
0.500000
20
1.500000
0
VERTEX
8
2
10
0.300000
20
1.500000
0
SEQEND
8
2
0
TEXT
8
0
10
-0.390000
20
1.460000
40
0.080000
41
1.000000
1
P0.2/AD2
0
TEXT
8
0
10
0.400000
20
1.510000
40
0.080000
41
1.000000
1
37
0
POLYLINE
8
2
66
1
40
0.016000
41
0.016000
0
VERTEX
8
2
10
0.500000
20
1.400000
0
VERTEX
8
2
10
0.300000
20
1.400000
0
SEQEND
8
2
0
TEXT
8
0
10
-0.390000
20
1.360000
40
0.080000
41
1.000000
1
P0.3/AD3
0
TEXT
8
0
10
0.400000
20
1.410000
40
0.080000
41
1.000000
1
36
0
POLYLINE
8
2
66
1
40
0.016000
41
0.016000
0
VERTEX
8
2
10
0.500000
20
1.300000
0
VERTEX
8
2
10
0.300000
20
1.300000
0
SEQEND
8
2
0
TEXT
8
0
10
-0.390000
20
1.260000
40
0.080000
41
1.000000
1
P0.4/AD4
0
TEXT
8
0
10
0.400000
20
1.310000
40
0.080000
41
1.000000
1
35
0
POLYLINE
8
2
66
1
40
0.016000
41
0.016000
0
VERTEX
8
2
10
0.500000
20
1.200000
0
VERTEX
8
2
10
0.300000
20
1.200000
0
SEQEND
8
2
0
TEXT
8
0
10
-0.390000
20
1.160000
40
0.080000
41
1.000000
1
P0.5/AD5
0
TEXT
8
0
10
0.400000
20
1.210000
40
0.080000
41
1.000000
1
34
0
POLYLINE
8
2
66
1
40
0.016000
41
0.016000
0
VERTEX
8
2
10
0.500000
20
1.100000
0
VERTEX
8
2
10
0.300000
20
1.100000
0
SEQEND
8
2
0
TEXT
8
0
10
-0.390000
20
1.060000
40
0.080000
41
1.000000
1
P0.6/AD6
0
TEXT
8
0
10
0.400000
20
1.110000
40
0.080000
41
1.000000
1
33
0
POLYLINE
8
2
66
1
40
0.016000
41
0.016000
0
VERTEX
8
2
10
0.500000
20
1.000000
0
VERTEX
8
2
10
0.300000
20
1.000000
0
SEQEND
8
2
0
TEXT
8
0
10
-0.390000
20
0.960000
40
0.080000
41
1.000000
1
P0.7/AD7
0
TEXT
8
0
10
0.400000
20
1.010000
40
0.080000
41
1.000000
1
32
0
POLYLINE
8
2
66
1
40
0.016000
41
0.016000
0
VERTEX
8
2
10
0.500000
20
0.100000
0
VERTEX
8
2
10
0.300000
20
0.100000
0
SEQEND
8
2
0
TEXT
8
0
10
-0.390000
20
0.060000
40
0.080000
41
1.000000
1
P2.7/A15
0
TEXT
8
0
10
0.400000
20
0.110000
40
0.080000
41
1.000000
1
28
0
POLYLINE
8
2
66
1
40
0.016000
41
0.016000
0
VERTEX
8
2
10
0.500000
20
0.800000
0
VERTEX
8
2
10
0.300000
20
0.800000
0
SEQEND
8
2
0
TEXT
8
0
10
-0.310000
20
0.760000
40
0.080000
41
1.000000
1
P2.0/A8
0
TEXT
8
0
10
0.400000
20
0.810000
40
0.080000
41
1.000000
1
21
0
POLYLINE
8
2
66
1
40
0.016000
41
0.016000
0
VERTEX
8
2
10
0.500000
20
0.700000
0
VERTEX
8
2
10
0.300000
20
0.700000
0
SEQEND
8
2
0
TEXT
8
0
10
-0.310000
20
0.660000
40
0.080000
41
1.000000
1
P2.1/A9
0
TEXT
8
0
10
0.400000
20
0.710000
40
0.080000
41
1.000000
1
22
0
POLYLINE
8
2
66
1
40
0.016000
41
0.016000
0
VERTEX
8
2
10
0.500000
20
0.600000
0
VERTEX
8
2
10
0.300000
20
0.600000
0
SEQEND
8
2
0
TEXT
8
0
10
-0.390000
20
0.560000
40
0.080000
41
1.000000
1
P2.2/A10
0
TEXT
8
0
10
0.400000
20
0.610000
40
0.080000
41
1.000000
1
23
0
POLYLINE
8
2
66
1
40
0.016000
41
0.016000
0
VERTEX
8
2
10
0.500000
20
0.500000
0
VERTEX
8
2
10
0.300000
20
0.500000
0
SEQEND
8
2
0
TEXT
8
0
10
-0.390000
20
0.460000
40
0.080000
41
1.000000
1
P2.3/A11
0
TEXT
8
0
10
0.400000
20
0.510000
40
0.080000
41
1.000000
1
24
0
POLYLINE
8
2
66
1
40
0.016000
41
0.016000
0
VERTEX
8
2
10
0.500000
20
0.400000
0
VERTEX
8
2
10
0.300000
20
0.400000
0
SEQEND
8
2
0
TEXT
8
0
10
-0.390000
20
0.360000
40
0.080000
41
1.000000
1
P2.4/A12
0
TEXT
8
0
10
0.400000
20
0.410000
40
0.080000
41
1.000000
1
25
0
POLYLINE
8
2
66
1
40
0.016000
41
0.016000
0
VERTEX
8
2
10
0.500000
20
0.300000
0
VERTEX
8
2
10
0.300000
20
0.300000
0
SEQEND
8
2
0
TEXT
8
0
10
-0.390000
20
0.260000
40
0.080000
41
1.000000
1
P2.5/A13
0
TEXT
8
0
10
0.400000
20
0.310000
40
0.080000
41
1.000000
1
26
0
POLYLINE
8
2
66
1
40
0.016000
41
0.016000
0
VERTEX
8
2
10
0.500000
20
0.200000
0
VERTEX
8
2
10
0.300000
20
0.200000
0
SEQEND
8
2
0
TEXT
8
0
10
-0.390000
20
0.160000
40
0.080000
41
1.000000
1
P2.6/A14
0
TEXT
8
0
10
0.400000
20
0.210000
40
0.080000
41
1.000000
1
27
0
POLYLINE
8
2
66
1
40
0.016000
41
0.016000
0
VERTEX
8
2
10
-1.300000
20
-0.100000
0
VERTEX
8
2
10
-1.100000
20
-0.100000
0
SEQEND
8
2
0
TEXT
8
0
10
-1.050000
20
-0.140000
40
0.080000
41
1.000000
1
P1.0
0
TEXT
8
0
10
-1.280000
20
-0.090000
40
0.080000
41
1.000000
1
1
0
POLYLINE
8
2
66
1
40
0.016000
41
0.016000
0
VERTEX
8
2
10
-1.300000
20
-0.200000
0
VERTEX
8
2
10
-1.100000
20
-0.200000
0
SEQEND
8
2
0
TEXT
8
0
10
-1.050000
20
-0.240000
40
0.080000
41
1.000000
1
P1.1
0
TEXT
8
0
10
-1.280000
20
-0.190000
40
0.080000
41
1.000000
1
2
0
POLYLINE
8
2
66
1
40
0.016000
41
0.016000
0
VERTEX
8
2
10
-1.300000
20
-0.300000
0
VERTEX
8
2
10
-1.100000
20
-0.300000
0
SEQEND
8
2
0
TEXT
8
0
10
-1.050000
20
-0.340000
40
0.080000
41
1.000000
1
P1.2
0
TEXT
8
0
10
-1.280000
20
-0.290000
40
0.080000
41
1.000000
1
3
0
POLYLINE
8
2
66
1
40
0.016000
41
0.016000
0
VERTEX
8
2
10
-1.300000
20
-0.400000
0
VERTEX
8
2
10
-1.100000
20
-0.400000
0
SEQEND
8
2
0
TEXT
8
0
10
-1.050000
20
-0.440000
40
0.080000
41
1.000000
1
P1.3
0
TEXT
8
0
10
-1.280000
20
-0.390000
40
0.080000
41
1.000000
1
4
0
POLYLINE
8
2
66
1
40
0.016000
41
0.016000
0
VERTEX
8
2
10
-1.300000
20
-0.500000
0
VERTEX
8
2
10
-1.100000
20
-0.500000
0
SEQEND
8
2
0
TEXT
8
0
10
-1.050000
20
-0.540000
40
0.080000
41
1.000000
1
P1.4
0
TEXT
8
0
10
-1.280000
20
-0.490000
40
0.080000
41
1.000000
1
5
0
POLYLINE
8
2
66
1
40
0.016000
41
0.016000
0
VERTEX
8
2
10
-1.300000
20
-0.600000
0
VERTEX
8
2
10
-1.100000
20
-0.600000
0
SEQEND
8
2
0
TEXT
8
0
10
-1.050000
20
-0.640000
40
0.080000
41
1.000000
1
P1.5
0
TEXT
8
0
10
-1.280000
20
-0.590000
40
0.080000
41
1.000000
1
6
0
POLYLINE
8
2
66
1
40
0.016000
41
0.016000
0
VERTEX
8
2
10
-1.300000
20
-0.700000
0
VERTEX
8
2
10
-1.100000
20
-0.700000
0
SEQEND
8
2
0
TEXT
8
0
10
-1.050000
20
-0.740000
40
0.080000
41
1.000000
1
P1.6
0
TEXT
8
0
10
-1.280000
20
-0.690000
40
0.080000
41
1.000000
1
7
0
POLYLINE
8
2
66
1
40
0.016000
41
0.016000
0
VERTEX
8
2
10
-1.300000
20
-0.800000
0
VERTEX
8
2
10
-1.100000
20
-0.800000
0
SEQEND
8
2
0
TEXT
8
0
10
-1.050000
20
-0.840000
40
0.080000
41
1.000000
1
P1.7
0
TEXT
8
0
10
-1.280000
20
-0.790000
40
0.080000
41
1.000000
1
8
0
POLYLINE
8
2
66
1
40
0.016000
41
0.016000
0
VERTEX
8
2
10
0.500000
20
-0.100000
0
VERTEX
8
2
10
0.300000
20
-0.100000
0
SEQEND
8
2
0
TEXT
8
0
10
-0.390000
20
-0.140000
40
0.080000
41
1.000000
1
P3.0/RXD
0
TEXT
8
0
10
0.400000
20
-0.090000
40
0.080000
41
1.000000
1
10
0
POLYLINE
8
2
66
1
40
0.016000
41
0.016000
0
VERTEX
8
2
10
0.500000
20
-0.200000
0
VERTEX
8
2
10
0.300000
20
-0.200000
0
SEQEND
8
2
0
TEXT
8
0
10
-0.390000
20
-0.240000
40
0.080000
41
1.000000
1
P3.1/TXD
0
TEXT
8
0
10
0.400000
20
-0.190000
40
0.080000
41
1.000000
1
11
0
POLYLINE
8
2
66
1
40
0.016000
41
0.016000
0
VERTEX
8
2
10
0.500000
20
-0.300000
0
VERTEX
8
2
10
0.300000
20
-0.300000
0
SEQEND
8
2
0
TEXT
8
0
10
-0.470000
20
-0.340000
40
0.080000
41
1.000000
1
P3.2/INT0
0
TEXT
8
0
10
0.400000
20
-0.290000
40
0.080000
41
1.000000
1
12
0
POLYLINE
8
2
66
1
40
0.016000
41
0.016000
0
VERTEX
8
2
10
0.500000
20
-0.400000
0
VERTEX
8
2
10
0.300000
20
-0.400000
0
SEQEND
8
2
0
TEXT
8
0
10
-0.470000
20
-0.440000
40
0.080000
41
1.000000
1
P3.3/INT1
0
TEXT
8
0
10
0.400000
20
-0.390000
40
0.080000
41
1.000000
1
13
0
POLYLINE
8
2
66
1
40
0.016000
41
0.016000
0
VERTEX
8
2
10
0.500000
20
-0.500000
0
VERTEX
8
2
10
0.300000
20
-0.500000
0
SEQEND
8
2
0
TEXT
8
0
10
-0.310000
20
-0.540000
40
0.080000
41
1.000000
1
P3.4/T0
0
TEXT
8
0
10
0.400000
20
-0.490000
40
0.080000
41
1.000000
1
14
0
POLYLINE
8
2
66
1
40
0.016000
41
0.016000
0
VERTEX
8
2
10
0.500000
20
-0.800000
0
VERTEX
8
2
10
0.300000
20
-0.800000
0
SEQEND
8
2
0
TEXT
8
0
10
-0.310000
20
-0.840000
40
0.080000
41
1.000000
1
P3.7/RD
0
TEXT
8
0
10
0.400000
20
-0.790000
40
0.080000
41
1.000000
1
17
0
POLYLINE
8
2
66
1
40
0.016000
41
0.016000
0
VERTEX
8
2
10
0.500000
20
-0.700000
0
VERTEX
8
2
10
0.300000
20
-0.700000
0
SEQEND
8
2
0
TEXT
8
0
10
-0.310000
20
-0.740000
40
0.080000
41
1.000000
1
P3.6/WR
0
TEXT
8
0
10
0.400000
20
-0.690000
40
0.080000
41
1.000000
1
16
0
POLYLINE
8
2
66
1
40
0.016000
41
0.016000
0
VERTEX
8
2
10
0.500000
20
-0.600000
0
VERTEX
8
2
10
0.300000
20
-0.600000
0
SEQEND
8
2
0
TEXT
8
0
10
-0.310000
20
-0.640000
40
0.080000
41
1.000000
1
P3.5/T1
0
TEXT
8
0
10
0.400000
20
-0.590000
40
0.080000
41
1.000000
1
15
0
TEXT
8
0
10
-1.108000
20
1.823000
40
0.120000
41
0.666667
1
U3
0
TEXT
8
0
10
-1.108000
20
-0.998000
40
0.080000
41
1.000000
1
80C51
0
POLYLINE
8
1
66
1
40
0.016000
41
0.016000
0
VERTEX
8
1
10
-1.850000
20
-0.200000
0
VERTEX
8
1
10
-1.900000
20
-0.300000
0
VERTEX
8
1
10
-1.950000
20
-0.200000
0
VERTEX
8
1
10
-1.850000
20
-0.200000
0
SEQEND
8
1
0
POLYLINE
8
1
66
1
40
0.016000
41
0.016000
0
VERTEX
8
1
10
-1.900000
20
-0.100000
0
VERTEX
8
1
10
-1.900000
20
-0.300000
0
SEQEND
8
1
0
POLYLINE
8
1
66
1
40
0.016000
41
0.016000
0
VERTEX
8
1
10
0.550000
20
1.800000
0
VERTEX
8
1
10
0.600000
20
1.900000
0
VERTEX
8
1
10
0.650000
20
1.800000
0
VERTEX
8
1
10
0.550000
20
1.800000
0
SEQEND
8
1
0
POLYLINE
8
1
66
1
40
0.016000
41
0.016000
0
VERTEX
8
1
10
0.600000
20
1.700000
0
VERTEX
8
1
10
0.600000
20
1.900000
0
SEQEND
8
1
0
POLYLINE
8
1
66
1
40
0.016000
41
0.016000
0
VERTEX
8
1
10
0.800000
20
1.500000
0
VERTEX
8
1
10
0.800000
20
1.400000
0
SEQEND
8
1
0
POLYLINE
8
1
66
1
40
0.016000
41
0.016000
0
VERTEX
8
1
10
0.700000
20
1.400000
0
VERTEX
8
1
10
0.900000
20
1.400000
0
SEQEND
8
1
0
POLYLINE
8
1
66
1
40
0.016000
41
0.016000
0
VERTEX
8
1
10
0.750000
20
1.350000
0
VERTEX
8
1
10
0.850000
20
1.350000
0
SEQEND
8
1
0
POLYLINE
8
1
66
1
40
0.016000
41
0.016000
0
VERTEX
8
1
10
0.790000
20
1.300000
0
VERTEX
8
1
10
0.810000
20
1.300000
0
SEQEND
8
1
0
CIRCLE
8
1
10
1.100000
20
1.600000
40
0.020000
0
POLYLINE
8
2
66
1
40
0.016000
41
0.016000
0
VERTEX
8
2
10
-3.300000
20
-3.400000
0
VERTEX
8
2
10
-1.900000
20
-3.400000
0
VERTEX
8
2
10
-1.900000
20
-1.600000
0
VERTEX
8
2
10
-3.300000
20
-1.600000
0
VERTEX
8
2
10
-3.300000
20
-3.400000
0
SEQEND
8
2
0
CIRCLE
8
0
10
-3.000000
20
-1.900000
40
0.150000
0
TEXT
8
0
10
-3.040000
20
-2.000000
40
0.200000
41
0.400000
1
1
0
CIRCLE
8
0
10
-2.600000
20
-1.900000
40
0.150000
0
TEXT
8
0
10
-2.640000
20
-2.000000
40
0.200000
41
0.400000
1
2
0
CIRCLE
8
0
10
-2.200000
20
-1.900000
40
0.150000
0
TEXT
8
0
10
-2.240000
20
-2.000000
40
0.200000
41
0.400000
1
3
0
CIRCLE
8
0
10
-3.000000
20
-2.300000
40
0.150000
0
TEXT
8
0
10
-3.040000
20
-2.400000
40
0.200000
41
0.400000
1
4
0
CIRCLE
8
0
10
-2.600000
20
-2.300000
40
0.150000
0
TEXT
8
0
10
-2.640000
20
-2.400000
40
0.200000
41
0.400000
1
5
0
CIRCLE
8
0
10
-2.200000
20
-2.300000
40
0.150000
0
TEXT
8
0
10
-2.240000
20
-2.400000
40
0.200000
41
0.400000
1
6
0
CIRCLE
8
0
10
-3.000000
20
-2.700000
40
0.150000
0
TEXT
8
0
10
-3.040000
20
-2.800000
40
0.200000
41
0.400000
1
7
0
CIRCLE
8
0
10
-2.600000
20
-2.700000
40
0.150000
0
TEXT
8
0
10
-2.640000
20
-2.800000
40
0.200000
41
0.400000
1
8
0
CIRCLE
8
0
10
-2.200000
20
-2.700000
40
0.150000
0
TEXT
8
0
10
-2.240000
20
-2.800000
40
0.200000
41
0.400000
1
9
0
CIRCLE
8
0
10
-3.000000
20
-3.100000
40
0.150000
0
CIRCLE
8
0
10
-2.600000
20
-3.100000
40
0.150000
0
TEXT
8
0
10
-2.640000
20
-3.200000
40
0.200000
41
0.400000
1
0
0
CIRCLE
8
0
10
-2.200000
20
-3.100000
40
0.150000
0
TEXT
8
0
10
-2.240000
20
-3.200000
40
0.200000
41
0.400000
1
#
0
POLYLINE
8
0
66
1
40
0.025000
41
0.025000
0
VERTEX
8
0
10
-3.070000
20
-3.100000
0
VERTEX
8
0
10
-2.930000
20
-3.100000
0
SEQEND
8
0
0
POLYLINE
8
0
66
1
40
0.025000
41
0.025000
0
VERTEX
8
0
10
-3.000000
20
-3.030000
0
VERTEX
8
0
10
-3.000000
20
-3.170000
0
SEQEND
8
0
0
POLYLINE
8
0
66
1
40
0.025000
41
0.025000
0
VERTEX
8
0
10
-3.050000
20
-3.150000
0
VERTEX
8
0
10
-2.950000
20
-3.050000
0
SEQEND
8
0
0
POLYLINE
8
0
66
1
40
0.025000
41
0.025000
0
VERTEX
8
0
10
-3.050000
20
-3.050000
0
VERTEX
8
0
10
-2.950000
20
-3.150000
0
SEQEND
8
0
0
POLYLINE
8
2
66
1
40
0.016000
41
0.016000
0
VERTEX
8
2
10
-3.000000
20
-1.400000
0
VERTEX
8
2
10
-3.000000
20
-1.600000
0
SEQEND
8
2
0
TEXT
8
0
10
-2.960000
20
-1.730000
40
0.080000
41
1.000000
50
90.000000
1
1
0
POLYLINE
8
2
66
1
40
0.016000
41
0.016000
0
VERTEX
8
2
10
-2.600000
20
-1.400000
0
VERTEX
8
2
10
-2.600000
20
-1.600000
0
SEQEND
8
2
0
TEXT
8
0
10
-2.560000
20
-1.730000
40
0.080000
41
1.000000
50
90.000000
1
2
0
POLYLINE
8
2
66
1
40
0.016000
41
0.016000
0
VERTEX
8
2
10
-2.200000
20
-1.400000
0
VERTEX
8
2
10
-2.200000
20
-1.600000
0
SEQEND
8
2
0
TEXT
8
0
10
-2.160000
20
-1.730000
40
0.080000
41
1.000000
50
90.000000
1
3
0
POLYLINE
8
2
66
1
40
0.016000
41
0.016000
0
VERTEX
8
2
10
-3.500000
20
-1.900000
0
VERTEX
8
2
10
-3.300000
20
-1.900000
0
SEQEND
8
2
0
TEXT
8
0
10
-3.250000
20
-1.940000
40
0.080000
41
1.000000
1
A
0
POLYLINE
8
2
66
1
40
0.016000
41
0.016000
0
VERTEX
8
2
10
-3.500000
20
-2.300000
0
VERTEX
8
2
10
-3.300000
20
-2.300000
0
SEQEND
8
2
0
TEXT
8
0
10
-3.250000
20
-2.340000
40
0.080000
41
1.000000
1
B
0
POLYLINE
8
2
66
1
40
0.016000
41
0.016000
0
VERTEX
8
2
10
-3.500000
20
-2.700000
0
VERTEX
8
2
10
-3.300000
20
-2.700000
0
SEQEND
8
2
0
TEXT
8
0
10
-3.250000
20
-2.740000
40
0.080000
41
1.000000
1
C
0
POLYLINE
8
2
66
1
40
0.016000
41
0.016000
0
VERTEX
8
2
10
-3.500000
20
-3.100000
0
VERTEX
8
2
10
-3.300000
20
-3.100000
0
SEQEND
8
2
0
TEXT
8
0
10
-3.250000
20
-3.140000
40
0.080000
41
1.000000
1
D
0
TEXT
8
0
10
-3.308000
20
-3.543000
40
0.120000
41
0.666667
1
KEYPAD
0
POLYLINE
8
1
66
1
40
0.016000
41
0.016000
0
VERTEX
8
1
10
-1.000000
20
-3.300000
0
VERTEX
8
1
10
-1.000000
20
-3.400000
0
SEQEND
8
1
0
POLYLINE
8
1
66
1
40
0.016000
41
0.016000
0
VERTEX
8
1
10
-1.100000
20
-3.400000
0
VERTEX
8
1
10
-0.900000
20
-3.400000
0
SEQEND
8
1
0
POLYLINE
8
1
66
1
40
0.016000
41
0.016000
0
VERTEX
8
1
10
-1.050000
20
-3.450000
0
VERTEX
8
1
10
-0.950000
20
-3.450000
0
SEQEND
8
1
0
POLYLINE
8
1
66
1
40
0.016000
41
0.016000
0
VERTEX
8
1
10
-1.010000
20
-3.500000
0
VERTEX
8
1
10
-0.990000
20
-3.500000
0
SEQEND
8
1
0
POLYLINE
8
2
66
1
40
0.016000
41
0.016000
0
VERTEX
8
2
10
1.900000
20
-2.800000
0
VERTEX
8
2
10
3.000000
20
-2.800000
0
VERTEX
8
2
10
3.000000
20
-1.900000
0
VERTEX
8
2
10
1.900000
20
-1.900000
0
VERTEX
8
2
10
1.900000
20
-2.800000
0
SEQEND
8
2
0
POLYLINE
8
2
66
1
40
0.016000
41
0.016000
0
VERTEX
8
2
10
1.700000
20
-2.000000
0
VERTEX
8
2
10
1.900000
20
-2.000000
0
SEQEND
8
2
0
TEXT
8
0
10
1.950000
20
-2.040000
40
0.080000
41
1.000000
1
IN1
0
TEXT
8
0
10
1.720000
20
-1.990000
40
0.080000
41
1.000000
1
2
0
POLYLINE
8
2
66
1
40
0.016000
41
0.016000
0
VERTEX
8
2
10
3.200000
20
-2.000000
0
VERTEX
8
2
10
3.000000
20
-2.000000
0
SEQEND
8
2
0
TEXT
8
0
10
2.630000
20
-2.040000
40
0.080000
41
1.000000
1
OUT1
0
TEXT
8
0
10
3.100000
20
-1.990000
40
0.080000
41
1.000000
1
3
0
POLYLINE
8
2
66
1
40
0.016000
41
0.016000
0
VERTEX
8
2
10
3.200000
20
-2.100000
0
VERTEX
8
2
10
3.000000
20
-2.100000
0
SEQEND
8
2
0
TEXT
8
0
10
2.630000
20
-2.140000
40
0.080000
41
1.000000
1
OUT2
0
TEXT
8
0
10
3.100000
20
-2.090000
40
0.080000
41
1.000000
1
6
0
POLYLINE
8
2
66
1
40
0.016000
41
0.016000
0
VERTEX
8
2
10
3.200000
20
-2.600000
0
VERTEX
8
2
10
3.000000
20
-2.600000
0
SEQEND
8
2
0
TEXT
8
0
10
2.630000
20
-2.640000
40
0.080000
41
1.000000
1
OUT3
0
TEXT
8
0
10
3.100000
20
-2.590000
40
0.080000
41
1.000000
1
11
0
POLYLINE
8
2
66
1
40
0.016000
41
0.016000
0
VERTEX
8
2
10
3.200000
20
-2.700000
0
VERTEX
8
2
10
3.000000
20
-2.700000
0
SEQEND
8
2
0
TEXT
8
0
10
2.630000
20
-2.740000
40
0.080000
41
1.000000
1
OUT4
0
TEXT
8
0
10
3.100000
20
-2.690000
40
0.080000
41
1.000000
1
14
0
POLYLINE
8
2
66
1
40
0.016000
41
0.016000
0
VERTEX
8
2
10
1.700000
20
-2.100000
0
VERTEX
8
2
10
1.900000
20
-2.100000
0
SEQEND
8
2
0
TEXT
8
0
10
1.950000
20
-2.140000
40
0.080000
41
1.000000
1
IN2
0
TEXT
8
0
10
1.720000
20
-2.090000
40
0.080000
41
1.000000
1
7
0
POLYLINE
8
2
66
1
40
0.016000
41
0.016000
0
VERTEX
8
2
10
1.700000
20
-2.600000
0
VERTEX
8
2
10
1.900000
20
-2.600000
0
SEQEND
8
2
0
TEXT
8
0
10
1.950000
20
-2.640000
40
0.080000
41
1.000000
1
IN3
0
TEXT
8
0
10
1.640000
20
-2.590000
40
0.080000
41
1.000000
1
10
0
POLYLINE
8
2
66
1
40
0.016000
41
0.016000
0
VERTEX
8
2
10
1.700000
20
-2.700000
0
VERTEX
8
2
10
1.900000
20
-2.700000
0
SEQEND
8
2
0
TEXT
8
0
10
1.950000
20
-2.740000
40
0.080000
41
1.000000
1
IN4
0
TEXT
8
0
10
1.640000
20
-2.690000
40
0.080000
41
1.000000
1
15
0
POLYLINE
8
2
66
1
40
0.016000
41
0.016000
0
VERTEX
8
2
10
1.700000
20
-2.200000
0
VERTEX
8
2
10
1.900000
20
-2.200000
0
SEQEND
8
2
0
TEXT
8
0
10
1.950000
20
-2.240000
40
0.080000
41
1.000000
1
EN1
0
TEXT
8
0
10
1.720000
20
-2.190000
40
0.080000
41
1.000000
1
1
0
POLYLINE
8
2
66
1
40
0.016000
41
0.016000
0
VERTEX
8
2
10
1.700000
20
-2.500000
0
VERTEX
8
2
10
1.900000
20
-2.500000
0
SEQEND
8
2
0
TEXT
8
0
10
1.950000
20
-2.540000
40
0.080000
41
1.000000
1
EN2
0
TEXT
8
0
10
1.720000
20
-2.490000
40
0.080000
41
1.000000
1
9
0
POLYLINE
8
2
66
1
40
0.016000
41
0.016000
0
VERTEX
8
2
10
2.600000
20
-1.700000
0
VERTEX
8
2
10
2.600000
20
-1.900000
0
SEQEND
8
2
0
TEXT
8
0
10
2.520000
20
-2.040000
40
0.080000
41
1.000000
1
VS
0
TEXT
8
0
10
2.625000
20
-1.790000
40
0.080000
41
1.000000
1
8
0
POLYLINE
8
2
66
1
40
0.016000
41
0.016000
0
VERTEX
8
2
10
2.300000
20
-1.700000
0
VERTEX
8
2
10
2.300000
20
-1.900000
0
SEQEND
8
2
0
TEXT
8
0
10
2.180000
20
-2.040000
40
0.080000
41
1.000000
1
VSS
0
TEXT
8
0
10
2.325000
20
-1.790000
40
0.080000
41
1.000000
1
16
0
POLYLINE
8
2
66
1
40
0.016000
41
0.016000
0
VERTEX
8
2
10
2.400000
20
-3.000000
0
VERTEX
8
2
10
2.400000
20
-2.800000
0
SEQEND
8
2
0
TEXT
8
0
10
2.440000
20
-2.750000
40
0.080000
41
1.000000
50
90.000000
1
GND
0
TEXT
8
0
10
3.008004
20
-1.777000
40
0.120000
41
0.666667
1
U2
0
TEXT
8
0
10
3.008004
20
-2.998000
40
0.080000
41
1.000000
1
L293D
0
CIRCLE
8
2
10
4.000000
20
-1.800000
40
0.200000
0
CIRCLE
8
2
10
4.000000
20
-1.800000
40
0.050000
0
POLYLINE
8
0
66
1
40
0.015000
41
0.015000
0
VERTEX
8
0
10
3.893934
20
-1.906066
0
VERTEX
8
0
10
3.883446
20
-1.894507
0
VERTEX
8
0
10
3.874357
20
-1.882269
0
VERTEX
8
0
10
3.860374
20
-1.856140
0
VERTEX
8
0
10
3.851984
20
-1.828459
0
VERTEX
8
0
10
3.849187
20
-1.800000
0
VERTEX
8
0
10
3.851984
20
-1.771541
0
VERTEX
8
0
10
3.860374
20
-1.743859
0
VERTEX
8
0
10
3.874357
20
-1.717731
0
VERTEX
8
0
10
3.883446
20
-1.705493
0
VERTEX
8
0
10
3.893934
20
-1.693934
0
VERTEX
8
0
10
3.929289
20
-1.729289
0
VERTEX
8
0
10
3.916238
20
-1.745154
0
VERTEX
8
0
10
3.906916
20
-1.762573
0
VERTEX
8
0
10
3.901323
20
-1.781028
0
VERTEX
8
0
10
3.899458
20
-1.800000
0
VERTEX
8
0
10
3.901323
20
-1.818972
0
VERTEX
8
0
10
3.906916
20
-1.837427
0
VERTEX
8
0
10
3.916238
20
-1.854846
0
VERTEX
8
0
10
3.929289
20
-1.870711
0
VERTEX
8
0
10
3.893934
20
-1.906066
0
SEQEND
8
0
0
POLYLINE
8
0
66
1
40
0.015000
41
0.015000
0
VERTEX
8
0
10
4.106066
20
-1.906066
0
VERTEX
8
0
10
4.116553
20
-1.894507
0
VERTEX
8
0
10
4.125643
20
-1.882269
0
VERTEX
8
0
10
4.139626
20
-1.856140
0
VERTEX
8
0
10
4.148016
20
-1.828459
0
VERTEX
8
0
10
4.150813
20
-1.800000
0
VERTEX
8
0
10
4.148016
20
-1.771541
0
VERTEX
8
0
10
4.139626
20
-1.743859
0
VERTEX
8
0
10
4.125643
20
-1.717731
0
VERTEX
8
0
10
4.116553
20
-1.705493
0
VERTEX
8
0
10
4.106066
20
-1.693934
0
VERTEX
8
0
10
4.070711
20
-1.729289
0
VERTEX
8
0
10
4.083762
20
-1.745154
0
VERTEX
8
0
10
4.093084
20
-1.762573
0
VERTEX
8
0
10
4.098677
20
-1.781028
0
VERTEX
8
0
10
4.100542
20
-1.800000
0
VERTEX
8
0
10
4.098677
20
-1.818972
0
VERTEX
8
0
10
4.093084
20
-1.837427
0
VERTEX
8
0
10
4.083762
20
-1.854846
0
VERTEX
8
0
10
4.070711
20
-1.870711
0
VERTEX
8
0
10
4.106066
20
-1.906066
0
SEQEND
8
0
0
POLYLINE
8
2
66
1
40
0.016000
41
0.016000
0
VERTEX
8
2
10
4.000000
20
-1.500000
0
VERTEX
8
2
10
4.000000
20
-1.600000
0
SEQEND
8
2
0
POLYLINE
8
2
66
1
40
0.016000
41
0.016000
0
VERTEX
8
2
10
4.000000
20
-2.100000
0
VERTEX
8
2
10
4.000000
20
-2.000000
0
SEQEND
8
2
0
TEXT
8
0
10
4.262132
20
-1.727000
40
0.120000
41
0.666667
1
BIKE_ENGINE
0
TEXT
8
0
10
4.262132
20
-1.832000
40
0.080000
41
1.000000
1
12V
0
POLYLINE
8
1
66
1
40
0.016000
41
0.016000
0
VERTEX
8
1
10
2.400000
20
-3.000000
0
VERTEX
8
1
10
2.400000
20
-3.100000
0
SEQEND
8
1
0
POLYLINE
8
1
66
1
40
0.016000
41
0.016000
0
VERTEX
8
1
10
2.300000
20
-3.100000
0
VERTEX
8
1
10
2.500000
20
-3.100000
0
SEQEND
8
1
0
POLYLINE
8
1
66
1
40
0.016000
41
0.016000
0
VERTEX
8
1
10
2.350000
20
-3.150000
0
VERTEX
8
1
10
2.450000
20
-3.150000
0
SEQEND
8
1
0
POLYLINE
8
1
66
1
40
0.016000
41
0.016000
0
VERTEX
8
1
10
2.390000
20
-3.200000
0
VERTEX
8
1
10
2.410000
20
-3.200000
0
SEQEND
8
1
0
POLYLINE
8
2
66
1
40
0.016000
41
0.016000
0
VERTEX
8
2
10
-2.550000
20
1.200000
0
VERTEX
8
2
10
-2.850000
20
1.200000
0
SEQEND
8
2
0
POLYLINE
8
2
66
1
40
0.016000
41
0.016000
0
VERTEX
8
2
10
-2.550000
20
1.000000
0
VERTEX
8
2
10
-2.850000
20
1.000000
0
SEQEND
8
2
0
POLYLINE
8
2
66
1
40
0.016000
41
0.016000
0
VERTEX
8
2
10
-2.800000
20
1.050000
0
VERTEX
8
2
10
-2.600000
20
1.050000
0
VERTEX
8
2
10
-2.600000
20
1.150000
0
VERTEX
8
2
10
-2.800000
20
1.150000
0
VERTEX
8
2
10
-2.800000
20
1.050000
0
SEQEND
8
2
0
POLYLINE
8
2
66
1
40
0.016000
41
0.016000
0
VERTEX
8
2
10
-2.700000
20
1.300000
0
VERTEX
8
2
10
-2.700000
20
1.200000
0
SEQEND
8
2
0
TEXT
8
0
10
-2.710000
20
1.300000
40
0.080000
41
1.000000
50
90.000000
1
1
0
POLYLINE
8
2
66
1
40
0.016000
41
0.016000
0
VERTEX
8
2
10
-2.700000
20
0.900000
0
VERTEX
8
2
10
-2.700000
20
1.000000
0
SEQEND
8
2
0
TEXT
8
0
10
-2.710000
20
0.820000
40
0.080000
41
1.000000
50
90.000000
1
2
0
TEXT
8
0
10
-2.492000
20
1.073000
40
0.120000
41
0.666667
1
X1
0
TEXT
8
0
10
-2.492000
20
0.968000
40
0.080000
41
1.000000
1
CRYSTAL
0
POLYLINE
8
2
66
1
40
0.016000
41
0.016000
0
VERTEX
8
2
10
-3.430000
20
1.400000
0
VERTEX
8
2
10
-3.430000
20
1.600000
0
SEQEND
8
2
0
POLYLINE
8
2
66
1
40
0.016000
41
0.016000
0
VERTEX
8
2
10
-3.370000
20
1.400000
0
VERTEX
8
2
10
-3.370000
20
1.600000
0
SEQEND
8
2
0
POLYLINE
8
2
66
1
40
0.016000
41
0.016000
0
VERTEX
8
2
10
-3.370000
20
1.500000
0
VERTEX
8
2
10
-3.300000
20
1.500000
0
SEQEND
8
2
0
POLYLINE
8
2
66
1
40
0.016000
41
0.016000
0
VERTEX
8
2
10
-3.430000
20
1.500000
0
VERTEX
8
2
10
-3.500000
20
1.500000
0
SEQEND
8
2
0
POLYLINE
8
2
66
1
40
0.016000
41
0.016000
0
VERTEX
8
2
10
-3.600000
20
1.500000
0
VERTEX
8
2
10
-3.500000
20
1.500000
0
SEQEND
8
2
0
POLYLINE
8
2
66
1
40
0.016000
41
0.016000
0
VERTEX
8
2
10
-3.200000
20
1.500000
0
VERTEX
8
2
10
-3.300000
20
1.500000
0
SEQEND
8
2
0
TEXT
8
0
10
-3.508000
20
1.623000
40
0.120000
41
0.666667
1
C1
0
TEXT
8
0
10
-3.508000
20
1.302000
40
0.080000
41
1.000000
1
1nF
0
POLYLINE
8
2
66
1
40
0.016000
41
0.016000
0
VERTEX
8
2
10
-3.370000
20
0.800000
0
VERTEX
8
2
10
-3.370000
20
0.600000
0
SEQEND
8
2
0
POLYLINE
8
2
66
1
40
0.016000
41
0.016000
0
VERTEX
8
2
10
-3.430000
20
0.800000
0
VERTEX
8
2
10
-3.430000
20
0.600000
0
SEQEND
8
2
0
POLYLINE
8
2
66
1
40
0.016000
41
0.016000
0
VERTEX
8
2
10
-3.430000
20
0.700000
0
VERTEX
8
2
10
-3.500000
20
0.700000
0
SEQEND
8
2
0
POLYLINE
8
2
66
1
40
0.016000
41
0.016000
0
VERTEX
8
2
10
-3.370000
20
0.700000
0
VERTEX
8
2
10
-3.300000
20
0.700000
0
SEQEND
8
2
0
POLYLINE
8
2
66
1
40
0.016000
41
0.016000
0
VERTEX
8
2
10
-3.200000
20
0.700000
0
VERTEX
8
2
10
-3.300000
20
0.700000
0
SEQEND
8
2
0
POLYLINE
8
2
66
1
40
0.016000
41
0.016000
0
VERTEX
8
2
10
-3.600000
20
0.700000
0
VERTEX
8
2
10
-3.500000
20
0.700000
0
SEQEND
8
2
0
TEXT
8
0
10
-3.508000
20
0.823000
40
0.120000
41
0.666667
1
C2
0
TEXT
8
0
10
-3.508000
20
0.502000
40
0.080000
41
1.000000
1
1nF
0
CIRCLE
8
1
10
-2.700000
20
0.700000
40
0.020000
0
CIRCLE
8
1
10
-2.700000
20
1.500000
40
0.020000
0
POLYLINE
8
1
66
1
40
0.016000
41
0.016000
0
VERTEX
8
1
10
-4.400000
20
0.600000
0
VERTEX
8
1
10
-4.400000
20
0.500000
0
SEQEND
8
1
0
POLYLINE
8
1
66
1
40
0.016000
41
0.016000
0
VERTEX
8
1
10
-4.500000
20
0.500000
0
VERTEX
8
1
10
-4.300000
20
0.500000
0
SEQEND
8
1
0
POLYLINE
8
1
66
1
40
0.016000
41
0.016000
0
VERTEX
8
1
10
-4.450000
20
0.450000
0
VERTEX
8
1
10
-4.350000
20
0.450000
0
SEQEND
8
1
0
POLYLINE
8
1
66
1
40
0.016000
41
0.016000
0
VERTEX
8
1
10
-4.410000
20
0.400000
0
VERTEX
8
1
10
-4.390000
20
0.400000
0
SEQEND
8
1
0
CIRCLE
8
1
10
-4.200000
20
0.700000
40
0.020000
0
POLYLINE
8
1
66
1
40
0.016000
41
0.016000
0
VERTEX
8
1
10
2.650000
20
-1.000000
0
VERTEX
8
1
10
2.700000
20
-0.900000
0
VERTEX
8
1
10
2.750000
20
-1.000000
0
VERTEX
8
1
10
2.650000
20
-1.000000
0
SEQEND
8
1
0
POLYLINE
8
1
66
1
40
0.016000
41
0.016000
0
VERTEX
8
1
10
2.700000
20
-1.100000
0
VERTEX
8
1
10
2.700000
20
-0.900000
0
SEQEND
8
1
0
CIRCLE
8
1
10
2.600000
20
-1.300000
40
0.020000
0
POLYLINE
8
0
66
1
40
0.010000
41
0.010000
0
VERTEX
8
0
10
1.300000
20
2.580000
0
VERTEX
8
0
10
3.100000
20
2.580000
0
VERTEX
8
0
10
3.100000
20
3.020000
0
VERTEX
8
0
10
1.300000
20
3.020000
0
VERTEX
8
0
10
1.300000
20
2.580000
0
SEQEND
8
0
0
POLYLINE
8
2
66
1
40
0.016000
41
0.016000
0
VERTEX
8
2
10
2.900000
20
2.100000
0
VERTEX
8
2
10
2.900000
20
2.300000
0
SEQEND
8
2
0
TEXT
8
0
10
2.940000
20
2.350000
40
0.080000
41
1.000000
50
90.000000
1
D7
0
TEXT
8
0
10
2.890000
20
2.040000
40
0.080000
41
1.000000
50
90.000000
1
14
0
POLYLINE
8
2
66
1
40
0.016000
41
0.016000
0
VERTEX
8
2
10
2.800000
20
2.100000
0
VERTEX
8
2
10
2.800000
20
2.300000
0
SEQEND
8
2
0
TEXT
8
0
10
2.840000
20
2.350000
40
0.080000
41
1.000000
50
90.000000
1
D6
0
TEXT
8
0
10
2.790000
20
2.040000
40
0.080000
41
1.000000
50
90.000000
1
13
0
POLYLINE
8
2
66
1
40
0.016000
41
0.016000
0
VERTEX
8
2
10
2.700000
20
2.100000
0
VERTEX
8
2
10
2.700000
20
2.300000
0
SEQEND
8
2
0
TEXT
8
0
10
2.740000
20
2.350000
40
0.080000
41
1.000000
50
90.000000
1
D5
0
TEXT
8
0
10
2.690000
20
2.040000
40
0.080000
41
1.000000
50
90.000000
1
12
0
POLYLINE
8
2
66
1
40
0.016000
41
0.016000
0
VERTEX
8
2
10
2.600000
20
2.100000
0
VERTEX
8
2
10
2.600000
20
2.300000
0
SEQEND
8
2
0
TEXT
8
0
10
2.640000
20
2.350000
40
0.080000
41
1.000000
50
90.000000
1
D4
0
TEXT
8
0
10
2.590000
20
2.040000
40
0.080000
41
1.000000
50
90.000000
1
11
0
POLYLINE
8
2
66
1
40
0.016000
41
0.016000
0
VERTEX
8
2
10
2.500000
20
2.100000
0
VERTEX
8
2
10
2.500000
20
2.300000
0
SEQEND
8
2
0
TEXT
8
0
10
2.540000
20
2.350000
40
0.080000
41
1.000000
50
90.000000
1
D3
0
TEXT
8
0
10
2.490000
20
2.040000
40
0.080000
41
1.000000
50
90.000000
1
10
0
POLYLINE
8
2
66
1
40
0.016000
41
0.016000
0
VERTEX
8
2
10
2.400000
20
2.100000
0
VERTEX
8
2
10
2.400000
20
2.300000
0
SEQEND
8
2
0
TEXT
8
0
10
2.440000
20
2.350000
40
0.080000
41
1.000000
50
90.000000
1
D2
0
TEXT
8
0
10
2.390000
20
2.120000
40
0.080000
41
1.000000
50
90.000000
1
9
0
POLYLINE
8
2
66
1
40
0.016000
41
0.016000
0
VERTEX
8
2
10
2.300000
20
2.100000
0
VERTEX
8
2
10
2.300000
20
2.300000
0
SEQEND
8
2
0
TEXT
8
0
10
2.340000
20
2.350000
40
0.080000
41
1.000000
50
90.000000
1
D1
0
TEXT
8
0
10
2.290000
20
2.120000
40
0.080000
41
1.000000
50
90.000000
1
8
0
POLYLINE
8
2
66
1
40
0.016000
41
0.016000
0
VERTEX
8
2
10
2.200000
20
2.100000
0
VERTEX
8
2
10
2.200000
20
2.300000
0
SEQEND
8
2
0
TEXT
8
0
10
2.240000
20
2.350000
40
0.080000
41
1.000000
50
90.000000
1
D0
0
TEXT
8
0
10
2.190000
20
2.120000
40
0.080000
41
1.000000
50
90.000000
1
7
0
POLYLINE
8
2
66
1
40
0.016000
41
0.016000
0
VERTEX
8
2
10
2.000000
20
2.100000
0
VERTEX
8
2
10
2.000000
20
2.300000
0
SEQEND
8
2
0
TEXT
8
0
10
2.040000
20
2.350000
40
0.080000
41
1.000000
50
90.000000
1
E
0
TEXT
8
0
10
1.990000
20
2.120000
40
0.080000
41
1.000000
50
90.000000
1
6
0
POLYLINE
8
2
66
1
40
0.016000
41
0.016000
0
VERTEX
8
2
10
1.900000
20
2.100000
0
VERTEX
8
2
10
1.900000
20
2.300000
0
SEQEND
8
2
0
TEXT
8
0
10
1.940000
20
2.350000
40
0.080000
41
1.000000
50
90.000000
1
RW
0
TEXT
8
0
10
1.890000
20
2.120000
40
0.080000
41
1.000000
50
90.000000
1
5
0
POLYLINE
8
2
66
1
40
0.016000
41
0.016000
0
VERTEX
8
2
10
1.800000
20
2.100000
0
VERTEX
8
2
10
1.800000
20
2.300000
0
SEQEND
8
2
0
TEXT
8
0
10
1.840000
20
2.350000
40
0.080000
41
1.000000
50
90.000000
1
RS
0
TEXT
8
0
10
1.790000
20
2.120000
40
0.080000
41
1.000000
50
90.000000
1
4
0
POLYLINE
8
2
66
1
40
0.016000
41
0.016000
0
VERTEX
8
2
10
1.400000
20
2.100000
0
VERTEX
8
2
10
1.400000
20
2.300000
0
SEQEND
8
2
0
TEXT
8
0
10
1.440000
20
2.350000
40
0.080000
41
1.000000
50
90.000000
1
VSS
0
TEXT
8
0
10
1.390000
20
2.120000
40
0.080000
41
1.000000
50
90.000000
1
1
0
POLYLINE
8
2
66
1
40
0.016000
41
0.016000
0
VERTEX
8
2
10
1.500000
20
2.100000
0
VERTEX
8
2
10
1.500000
20
2.300000
0
SEQEND
8
2
0
TEXT
8
0
10
1.540000
20
2.350000
40
0.080000
41
1.000000
50
90.000000
1
VDD
0
TEXT
8
0
10
1.490000
20
2.120000
40
0.080000
41
1.000000
50
90.000000
1
2
0
POLYLINE
8
2
66
1
40
0.016000
41
0.016000
0
VERTEX
8
2
10
1.600000
20
2.100000
0
VERTEX
8
2
10
1.600000
20
2.300000
0
SEQEND
8
2
0
TEXT
8
0
10
1.640000
20
2.350000
40
0.080000
41
1.000000
50
90.000000
1
VEE
0
TEXT
8
0
10
1.590000
20
2.120000
40
0.080000
41
1.000000
50
90.000000
1
3
0
TEXT
8
0
10
1.192000
20
3.323000
40
0.120000
41
0.666667
1
LCD
0
TEXT
8
0
10
1.192000
20
3.218000
40
0.080000
41
1.000000
1
LM016L
0
POLYLINE
8
2
66
1
40
0.016000
41
0.016000
0
VERTEX
8
2
10
0.150000
20
-2.550000
0
VERTEX
8
2
10
0.135132
20
-2.550806
0
VERTEX
8
2
10
0.120586
20
-2.553164
0
VERTEX
8
2
10
0.092813
20
-2.562187
0
VERTEX
8
2
10
0.067383
20
-2.576367
0
VERTEX
8
2
10
0.045000
20
-2.595000
0
VERTEX
8
2
10
0.026367
20
-2.617383
0
VERTEX
8
2
10
0.012187
20
-2.642812
0
VERTEX
8
2
10
0.003164
20
-2.670586
0
VERTEX
8
2
10
0.000806
20
-2.685132
0
VERTEX
8
2
10
0.000000
20
-2.700000
0
VERTEX
8
2
10
0.000806
20
-2.714868
0
VERTEX
8
2
10
0.003164
20
-2.729414
0
VERTEX
8
2
10
0.012187
20
-2.757187
0
VERTEX
8
2
10
0.026367
20
-2.782617
0
VERTEX
8
2
10
0.045000
20
-2.805000
0
VERTEX
8
2
10
0.067383
20
-2.823633
0
VERTEX
8
2
10
0.092813
20
-2.837813
0
VERTEX
8
2
10
0.120586
20
-2.846836
0
VERTEX
8
2
10
0.135132
20
-2.849195
0
VERTEX
8
2
10
0.150000
20
-2.850000
0
VERTEX
8
2
10
0.150000
20
-2.550000
0
SEQEND
8
2
0
POLYLINE
8
2
66
1
40
0.016000
41
0.016000
0
VERTEX
8
2
10
0.000000
20
-2.800000
0
VERTEX
8
2
10
0.040000
20
-2.800000
0
SEQEND
8
2
0
POLYLINE
8
2
66
1
40
0.016000
41
0.016000
0
VERTEX
8
2
10
0.000000
20
-2.600000
0
VERTEX
8
2
10
0.040000
20
-2.600000
0
SEQEND
8
2
0
POLYLINE
8
2
66
1
40
0.016000
41
0.016000
0
VERTEX
8
2
10
-0.100000
20
-2.800000
0
VERTEX
8
2
10
0.000000
20
-2.800000
0
SEQEND
8
2
0
POLYLINE
8
2
66
1
40
0.016000
41
0.016000
0
VERTEX
8
2
10
-0.100000
20
-2.600000
0
VERTEX
8
2
10
0.000000
20
-2.600000
0
SEQEND
8
2
0
TEXT
8
0
10
-0.008000
20
-2.527000
40
0.120000
41
0.666667
1
BUZ1
0
TEXT
8
0
10
-0.008000
20
-2.948000
40
0.080000
41
1.000000
1
BUZZER
0
TEXT
8
3
10
-2.800000
20
-4.215000
40
0.280000
41
0.285714
1
Password Based Bike Ignition System
0
ENDSEC
0
EOF

